<svg width="23" height="23" viewBox="0 0 23 23" fill="none" xmlns="http://www.w3.org/2000/svg">
<path d="M2.875 2.875C2.875 1.28718 4.16218 0 5.75 0H17.25C18.8378 0 20.125 1.28718 20.125 2.875V22.2812C20.125 22.5463 19.9791 22.7899 19.7454 22.915C19.5117 23.04 19.2281 23.0263 19.0076 22.8793L11.5 18.8326L3.99244 22.8793C3.77189 23.0263 3.48831 23.04 3.2546 22.915C3.0209 22.7899 2.875 22.5463 2.875 22.2812V2.875ZM5.75 1.4375C4.95609 1.4375 4.3125 2.08109 4.3125 2.875V20.9383L11.1013 17.3707C11.3427 17.2098 11.6573 17.2098 11.8987 17.3707L18.6875 20.9383V2.875C18.6875 2.08109 18.0439 1.4375 17.25 1.4375H5.75Z" fill="white"/>
</svg>
